<svg width="20" height="20" viewBox="0 0 20 20" fill="none" xmlns="http://www.w3.org/2000/svg">
<rect opacity="0.6" width="20" height="20" rx="3" fill="#F6E96B"/>
<g clip-path="url(#clip0_212_256)">
<path d="M14.587 7.40595C14.8513 7.14166 14.9999 6.78318 14.9999 6.40937C15 6.03557 14.8515 5.67705 14.5872 5.4127C14.3229 5.14834 13.9645 4.9998 13.5906 4.99976C13.2168 4.99971 12.8583 5.14816 12.594 5.41245L5.92097 12.0869C5.80488 12.2027 5.71902 12.3452 5.67097 12.5019L5.01047 14.6779C4.99754 14.7212 4.99657 14.7671 5.00764 14.8109C5.01872 14.8546 5.04143 14.8946 5.07337 14.9264C5.1053 14.9583 5.14528 14.981 5.18905 14.992C5.23282 15.003 5.27875 15.0019 5.32197 14.9889L7.49847 14.3289C7.65505 14.2813 7.79755 14.196 7.91347 14.0804L14.587 7.40595Z" stroke="#191919" stroke-width="0.7" stroke-linecap="round" stroke-linejoin="round"/>
</g>
<defs>
<clipPath id="clip0_212_256">
<rect width="12" height="12" fill="white" transform="translate(4 4)"/>
</clipPath>
</defs>
</svg>
